# xmcd
# 
# Track frame offsets:
#     150
#     19194
#     34859
#     69022
#     96432
#     126822
#     132036
#     161108
#     180678
#     211848
#     253147
#     287050
# 
# Disc length: 4473
# 
# Revision: 0
# Processed by: cddbd v1.5.2PL0 Copyright (c) Steve Scherf et al.
# Submitted via: fre:ac v1.0.27
# 
DISCID=a911770c
DTITLE=Cheap TeQuila - Like This Way
DYEAR=2015
DGENRE=Blues
TTITLE0=outside woman blues
TTITLE1=30 days
TTITLE2=cold day in hell
TTITLE3=tattoo´d lady
TTITLE4=hands off
TTITLE5=intro
TTITLE6=cheap tequila
TTITLE7=still alive and well
TTITLE8=someday after a while
TTITLE9=I take what I want
TTITLE10=don't let me be lonely tonight
TTITLE11=the core
EXTD=
EXTT0=
EXTT1=
EXTT2=
EXTT3=
EXTT4=
EXTT5=
EXTT6=
EXTT7=
EXTT8=
EXTT9=
EXTT10=
EXTT11=
PLAYORDER=
